<svg xmlns="http://www.w3.org/2000/svg" width="196.44" height="130.469"><path data-name="2" d="M102.13 65.236q0-29.568-13.53-47.4T51.06.005q-24.015 0-37.54 17.831t-13.53 47.4q0 29.567 13.53 47.4t37.54 17.833q24.015 0 37.54-17.83t13.53-47.403zM51.06 27.962q22.395 0 22.4 37.274t-22.4 37.273q-22.41 0-22.4-37.273t22.4-37.274zm145.38 99.993v-27.6h-42.11l20.79-20.967q19.53-19.53 19.53-39.423 0-18.279-12.45-29.12T152.18.003a47.326 47.326 0 0 0-25.09 6.989 42.809 42.809 0 0 0-17.2 20.429l24.19 14.156q5.91-13.615 18.46-13.619 6.27 0 9.85 3.674a13.148 13.148 0 0 1 3.59 9.587q0 9.139-12.73 22.221l-42.11 43.729v20.787h85.3z" fill="#fff" fill-rule="evenodd"/></svg>