<svg xmlns="http://www.w3.org/2000/svg" width="199.94" height="130.469"><path data-name="3" d="M102.14 65.236q0-29.568-13.53-47.4T51.07.005q-24.015 0-37.54 17.831T0 65.236q0 29.567 13.53 47.4t37.54 17.833q24.015 0 37.54-17.83t13.53-47.403zM51.07 27.962q22.4 0 22.4 37.274t-22.4 37.273q-22.41 0-22.4-37.273t22.4-37.274zm143.84-2.15v-23.3h-80.64v26.88h45.88l-22.76 28.851 10.93 16.307h5.91q8.43 0 12.73 3.942a13.861 13.861 0 0 1 0 20.071q-4.305 3.943-12.73 3.942-14.505 0-19.17-13.261l-24.73 14.336a40.545 40.545 0 0 0 17.29 20.07 52.055 52.055 0 0 0 26.61 6.81q19.17 0 32.44-11.11t13.26-30.823a33.9 33.9 0 0 0-7.35-21.772 41.225 41.225 0 0 0-19.35-13.35z" fill="#fff" fill-rule="evenodd"/></svg>